<svg id="sun" xmlns="http://www.w3.org/2000/svg" width="42" height="42" viewBox="0 0 42 42"><path id="sun" d="M39.81,19H33.23a2.61,2.61,0,0,0-.56.08,12.08,12.08,0,0,0-.51-1.9,2.45,2.45,0,0,0,.62-.23l5.7-3.29a2.19,2.19,0,1,0-2.2-3.79l-5.69,3.28a2.28,2.28,0,0,0-.5.42,11.65,11.65,0,0,0-1.4-1.41,1.86,1.86,0,0,0,.48-.56L32.46,5.9a2.19,2.19,0,1,0-3.8-2.19L25.38,9.4a1.86,1.86,0,0,0-.24.67,11.27,11.27,0,0,0-1.91-.54,2.14,2.14,0,0,0,.14-.76V2.19a2.19,2.19,0,1,0-4.38,0V8.77a2.13,2.13,0,0,0,.13.71,11.33,11.33,0,0,0-1.93.47,2.18,2.18,0,0,0-.25-.73l-3.29-5.7a2.19,2.19,0,1,0-3.79,2.2l3.28,5.69a2.21,2.21,0,0,0,.44.52,10.89,10.89,0,0,0-1.43,1.37,2.12,2.12,0,0,0-.56-.47L5.9,9.54a2.19,2.19,0,1,0-2.19,3.8L9.4,16.62a2,2,0,0,0,.56.22,12.13,12.13,0,0,0-.57,1.89,2.17,2.17,0,0,0-.62-.1H2.19a2.19,2.19,0,1,0,0,4.38H8.77a2.24,2.24,0,0,0,.51-.07,11.16,11.16,0,0,0,.44,1.92,2.37,2.37,0,0,0-.5.2l-5.7,3.29a2.19,2.19,0,1,0,2.2,3.79l5.69-3.28a2.13,2.13,0,0,0,.34-.25A12.15,12.15,0,0,0,13.11,30a1.78,1.78,0,0,0-.28.38L9.54,36.1a2.19,2.19,0,1,0,3.8,2.19l3.28-5.69a1.47,1.47,0,0,0,.15-.34,11,11,0,0,0,1.9.56,1.84,1.84,0,0,0,0,.41v6.58a2.19,2.19,0,0,0,4.38,0V33.23a2,2,0,0,0,0-.35,13,13,0,0,0,1.91-.49,2.76,2.76,0,0,0,.18.39l3.29,5.7a2.19,2.19,0,1,0,3.79-2.2l-3.28-5.69a3.71,3.71,0,0,0-.23-.32A12.16,12.16,0,0,0,30,28.88a2.19,2.19,0,0,0,.39.29l5.69,3.29a2.19,2.19,0,1,0,2.19-3.8L32.6,25.38a2.44,2.44,0,0,0-.44-.19,12.08,12.08,0,0,0,.51-1.9,2.1,2.1,0,0,0,.56.08h6.58a2.19,2.19,0,0,0,0-4.38Z"/></svg>